<?xml version="1.0" ?><svg viewBox="0 0 32 32" xmlns="http://www.w3.org/2000/svg"><defs><style>.cls-1,.cls-5{fill:#af66d9;}.cls-1,.cls-2,.cls-6{fill-rule:evenodd;}.cls-2,.cls-7{fill:#c6bfc8;}.cls-3{fill:#f1ecf0;}.cls-4{fill:#dfdedb;}.cls-6{fill:#f1edf0;}</style></defs><g id="Calendar"><path class="cls-1" d="M28,6a1.63,1.63,0,0,0-1.64-1.63H5.64A1.63,1.63,0,0,0,4,6V8.42H28Z"/><path class="cls-2" d="M28,8.42H4V28.74a1.6,1.6,0,0,0,.48,1.15,1.63,1.63,0,0,0,1.16.48H26.36a1.64,1.64,0,0,0,1.16-.48A1.6,1.6,0,0,0,28,28.74Z"/><polygon class="cls-3" points="20.28 27.49 4 27.49 4 8.42 28 8.42 28 20.52 20.28 27.49"/><path class="cls-4" d="M20.33,27.49V21.77a1.25,1.25,0,0,1,1.25-1.25H28s-1.21,7-7.67,7"/><path class="cls-5" d="M14.1,15.09a.47.47,0,0,0-.36.45c0,.28,0,.64,0,.94a.5.5,0,0,0,.14.35.53.53,0,0,0,.35.15h.73a.5.5,0,0,1,.5.5V21.6a.5.5,0,0,0,.5.5h1.85a.5.5,0,0,0,.5-.5V14.32a.5.5,0,0,0-.5-.5H15.42a.49.49,0,0,0-.48.38A1.24,1.24,0,0,1,14.1,15.09Z"/><path class="cls-6" d="M5.25,2.38v3a.75.75,0,0,0,1.5,0v-3a.75.75,0,1,0-1.5,0Z"/><path class="cls-6" d="M10.25,2.38v3a.75.75,0,0,0,1.5,0v-3a.75.75,0,1,0-1.5,0Z"/><path class="cls-6" d="M15.25,2.38v3a.75.75,0,0,0,1.5,0v-3a.75.75,0,1,0-1.5,0Z"/><path class="cls-6" d="M20.25,2.38v3a.75.75,0,0,0,1.5,0v-3a.75.75,0,1,0-1.5,0Z"/><path class="cls-6" d="M25.25,2.38v3a.75.75,0,0,0,1.5,0v-3a.75.75,0,1,0-1.5,0Z"/><path class="cls-7" d="M7.47,24.84a.75.75,0,1,0-.75.75.75.75,0,0,0,.75-.75"/><path class="cls-7" d="M7.47,22.56a.75.75,0,1,0-.75.75.75.75,0,0,0,.75-.75"/><path class="cls-7" d="M7.47,20.28a.75.75,0,0,0-1.5,0H6a.75.75,0,0,0,1.5,0Z"/><path class="cls-7" d="M7.47,18a.75.75,0,1,0-.75.75A.75.75,0,0,0,7.47,18"/><path class="cls-7" d="M7.47,15.72a.75.75,0,1,0-.75.75.75.75,0,0,0,.75-.75"/><path class="cls-7" d="M7.47,13.44a.75.75,0,0,0-1.5,0H6a.75.75,0,0,0,1.5,0Z"/></g></svg>